<svg width="12" height="7" viewBox="0 0 12 7" fill="none" xmlns="http://www.w3.org/2000/svg">
<path d="M10.3733 0.660449L6.0001 4.92345L1.62685 0.660449C1.54871 0.584129 1.44382 0.541402 1.3346 0.541402C1.22537 0.541402 1.12048 0.584129 1.04235 0.660449C1.00451 0.697517 0.974458 0.741762 0.953939 0.790593C0.93342 0.839423 0.922852 0.891857 0.922852 0.944824C0.922852 0.99779 0.93342 1.05022 0.953939 1.09905C0.974458 1.14788 1.00451 1.19213 1.04235 1.2292L5.69472 5.7652C5.77642 5.84484 5.886 5.88941 6.0001 5.88941C6.11419 5.88941 6.22377 5.84484 6.30547 5.7652L10.9578 1.23007C10.9959 1.19298 11.0262 1.14862 11.0469 1.09963C11.0676 1.05064 11.0782 0.998001 11.0782 0.944824C11.0782 0.891646 11.0676 0.839008 11.0469 0.790016C11.0262 0.741023 10.9959 0.69667 10.9578 0.659573C10.8797 0.583254 10.7748 0.540527 10.6656 0.540527C10.5564 0.540527 10.4515 0.583254 10.3733 0.659573V0.660449Z" fill="#828282" stroke="#828282" stroke-width="0.5"/>
</svg>
