<svg width="40" height="40" viewBox="0 0 40 40" fill="none" xmlns="http://www.w3.org/2000/svg">
<rect x="0.5" y="0.5" width="39" height="39" rx="19.5" stroke="#444753"/>
<path d="M18.0093 21.2871C17.5325 21.2871 17.0884 21.2871 16.6508 21.2871C16.2655 21.2871 15.8866 21.2936 15.5013 21.2806C15.1355 21.2675 15.0049 21.15 15.0049 20.7907C14.9984 19.7588 14.9984 18.7203 15.0049 17.6883C15.0114 17.3226 15.1486 17.205 15.5274 17.205C16.2524 17.1985 16.9774 17.205 17.7024 17.205C17.7938 17.205 17.8787 17.205 18.0028 17.205C18.0028 17.094 18.0028 17.0025 18.0028 16.9045C18.0224 15.9706 17.9897 15.03 18.0616 14.096C18.2445 11.9342 19.8512 10.2686 22.0131 10.0662C23.13 9.96167 24.2599 10.0139 25.3833 10.0074C25.638 10.0074 25.7817 10.1511 25.7817 10.4058C25.7882 11.4182 25.7882 12.424 25.7817 13.4364C25.7817 13.7238 25.625 13.8413 25.2853 13.8479C24.6387 13.8609 23.9986 13.8674 23.352 13.874C23.2736 13.874 23.1887 13.874 23.1104 13.8805C22.5879 13.9262 22.2809 14.1875 22.2613 14.71C22.2286 15.5134 22.2548 16.3167 22.2548 17.1527C22.3462 17.1527 22.4376 17.1527 22.5225 17.1527C23.3716 17.1527 24.2142 17.1527 25.0633 17.1527C25.5596 17.1527 25.6903 17.2834 25.6903 17.7732C25.6903 18.7529 25.6903 19.7261 25.6903 20.7058C25.6903 21.1434 25.5727 21.2545 25.1416 21.261C24.273 21.2675 23.3977 21.261 22.5291 21.261C22.4442 21.261 22.3527 21.261 22.2417 21.261C22.2417 21.3851 22.2417 21.4765 22.2417 21.5745C22.2417 24.1217 22.2417 26.6755 22.2417 29.2228C22.2417 29.9282 22.1698 30 21.4514 30C20.5174 30 19.5769 30 18.6429 30C18.14 30 18.0224 29.8759 18.0224 29.3795C18.0224 26.7866 18.0224 24.2001 18.0224 21.6072C18.0093 21.5092 18.0093 21.4177 18.0093 21.2871Z" fill="#7A7D8C"/>
</svg>
