<svg width="80" height="80" viewBox="0 0 80 80" fill="none" xmlns="http://www.w3.org/2000/svg">
<path d="M12.5 40.4H37.5C38.6598 40.4 39.6 41.3402 39.6 42.5C39.6 43.6598 38.6598 44.6 37.5 44.6H12.5C11.3402 44.6 10.4 43.6598 10.4 42.5C10.4 41.3402 11.3402 40.4 12.5 40.4ZM7.5 27.9H27.5C28.6598 27.9 29.6 28.8402 29.6 30C29.6 31.1598 28.6598 32.1 27.5 32.1H7.5C6.3402 32.1 5.4 31.1598 5.4 30C5.4 28.8402 6.3402 27.9 7.5 27.9Z" fill="#242424" stroke="white" stroke-width="0.8"/>
<path d="M74.4298 41.6726L74.4299 41.6729C74.5422 41.9342 74.6 42.2155 74.5999 42.4999V42.5V60C74.5999 60.557 74.3787 61.0911 73.9849 61.4849C73.591 61.8788 73.0569 62.1 72.4999 62.1H67.1449H66.8337L66.7572 62.4017C66.2352 64.4611 65.0415 66.2876 63.3648 67.5923C61.6882 68.897 59.6244 69.6053 57.4999 69.6053C55.3755 69.6053 53.3117 68.897 51.635 67.5923C49.9584 66.2876 48.7647 64.4611 48.2427 62.4017L48.1662 62.1H47.8549H32.1449H31.8351L31.7576 62.4C31.1735 64.6624 29.7843 66.6341 27.8504 67.9455C25.9165 69.2569 23.5708 69.8179 21.2528 69.5235C18.9349 69.2291 16.8039 68.0994 15.2593 66.3462C13.7147 64.5929 12.8625 62.3366 12.8625 60C12.8625 57.6634 13.7147 55.4071 15.2593 53.6538C16.8039 51.9006 18.9349 50.7709 21.2528 50.4765C23.5708 50.1821 25.9166 50.7432 27.8504 52.0546C29.7843 53.3659 31.1735 55.3376 31.7576 57.6L31.8351 57.9H32.1449H47.8549H48.1639L48.242 57.601C48.5613 56.3775 49.1197 55.2293 49.885 54.2227C50.6503 53.2161 51.6073 52.3709 52.7008 51.7359L52.8999 51.6203V51.39V20V19.6H52.4999V20C52.4999 19.6 52.4998 19.6 52.4996 19.6H52.4985H52.494H52.4764H52.4066H52.1337H51.0937H47.3437H35.6249H14.9999C12.6061 19.6 11.6494 18.43 11.6495 17.5C11.6495 16.57 12.6063 15.4 14.9999 15.4H15.0296H15.0599H15.0909H15.1226H15.1549H15.188H15.2217H15.256H15.2911H15.3268H15.3631H15.4001H15.4378H15.4761H15.515H15.5546H15.5948H15.6357H15.6772H15.7193H15.7621H15.8055H15.8495H15.8941H15.9394H15.9852H16.0317H16.0788H16.1265H16.1748H16.2236H16.2731H16.3232H16.3739H16.4251H16.477H16.5294H16.5824H16.636H16.6901H16.7449H16.8001H16.856H16.9124H16.9694H17.0269H17.085H17.1436H17.2028H17.2625H17.3228H17.3836H17.445H17.5068H17.5692H17.6322H17.6956H17.7596H17.8241H17.8891H17.9546H18.0207H18.0872H18.1542H18.2218H18.2898H18.3583H18.4274H18.4969H18.5669H18.6374H18.7083H18.7798H18.8517H18.9241H18.9969H19.0703H19.144H19.2183H19.293H19.3681H19.4438H19.5198H19.5963H19.6733H19.7506H19.8285H19.9067H19.9854H20.0645H20.1441H20.224H20.3044H20.3852H20.4664H20.548H20.6301H20.7125H20.7953H20.8786H20.9622H21.0462H21.1306H21.2154H21.3006H21.3862H21.4721H21.5584H21.6451H21.7322H21.8196H21.9074H21.9956H22.0841H22.173H22.2622H22.3518H22.4417H22.5319H22.6226H22.7135H22.8048H22.8964H22.9883H23.0806H23.1732H23.2661H23.3593H23.4528H23.5467H23.6409H23.7353H23.8301H23.9252H24.0205H24.1162H24.2122H24.3084H24.4049H24.5017H24.5988H24.6962H24.7938H24.8917H24.9899H25.0884H25.1871H25.286H25.3853H25.4848H25.5845H25.6845H25.7847H25.8851H25.9858H26.0868H26.188H26.2894H26.391H26.4928H26.5949H26.6972H26.7997H26.9025H27.0054H27.1085H27.2119H27.3154H27.4192H27.5231H27.6273H27.7316H27.8361H27.9408H28.0457H28.1507H28.2559H28.3613H28.4669H28.5727H28.6786H28.7846H28.8908H28.9972H29.1037H29.2104H29.3172H29.4242H29.5313H29.6386H29.7459H29.8534H29.9611H30.0688H30.1767H30.2847H30.3929H30.5011H30.6095H30.7179H30.8265H30.9351H31.0439H31.1528H31.2617H31.3708H31.4799H31.5891H31.6984H31.8078H31.9173H32.0268H32.1364H32.2461H32.3558H32.4656H32.5755H32.6854H32.7954H32.9054H33.0154H33.1255H33.2357H33.3459H33.4561H33.5664H33.6766H33.787H33.8973H34.0077H34.118H34.2284H34.3388H34.4492H34.5597H34.6701H34.7805H34.8909H35.0014H35.1118H35.2222H35.3326H35.4429H35.5533H35.6636H35.7739H35.8842H35.9944H36.1047H36.2148H36.325H36.4351H36.5451H36.6551H36.765H36.8749H36.9848H37.0945H37.2043H37.3139H37.4235H37.533H37.6424H37.7518H37.861H37.9702H38.0793H38.1883H38.2973H38.4061H38.5148H38.6234H38.732H38.8404H38.9487H39.0569H39.165H39.2729H39.3808H39.4885H39.5961H39.7035H39.8109H39.918H40.0251H40.132H40.2388H40.3454H40.4519H40.5582H40.6643H40.7703H40.8762H40.9819H41.0874H41.1927H41.2979H41.4028H41.5077H41.6123H41.7167H41.821H41.925H42.0289H42.1326H42.236H42.3393H42.4424H42.5452H42.6479H42.7503H42.8525H42.9545H43.0563H43.1578H43.2591H43.3602H43.4611H43.5617H43.662H43.7622H43.8621H43.9617H44.0611H44.1602H44.2591H44.3577H44.456H44.5541H44.6519H44.7494H44.8467H44.9437H45.0404H45.1368H45.2329H45.3288H45.4243H45.5196H45.6145H45.7092H45.8035H45.8976H45.9913H46.0847H46.1778H46.2706H46.3631H46.4552H46.547H46.6385H46.7297H46.8205H46.911H47.0011H47.0909H47.1803H47.2694H47.3581H47.4465H47.5345H47.6222H47.7095H47.7964H47.8829H47.9691H48.0549H48.1404H48.2254H48.31H48.3943H48.4782H48.5617H48.6447H48.7274H48.8097H48.8916H48.973H49.0541H49.1347H49.2149H49.2947H49.3741H49.4531H49.5316H49.6097H49.6873H49.7645H49.8413H49.9176H49.9935H50.069H50.1439H50.2185H50.2925H50.3662H50.4393H50.512H50.5842H50.6559H50.7272H50.798H50.8683H50.9381H51.0074H51.0762H51.1446H51.2124H51.2798H51.3466H51.413H51.4788H51.5441H51.6089H51.6732H51.737H51.8003H51.863H51.9252H51.9869H52.048H52.1086H52.1686H52.2282H52.2871H52.3456H52.4034H52.4607H52.5175H52.5737H52.6293H52.6844H52.7389H52.7929H52.8462H52.899H52.9512H53.0028H53.0538H53.1043H53.1541H53.2034H53.252H53.3001H53.3476H53.3944H53.4406H53.4863H53.5313H53.5757H53.6194H53.6626H53.7051H53.747H53.7883H53.8289H53.8689H53.9082H53.9469H53.985H54.0224H54.0591H54.0952H54.1306H54.1654H54.1995H54.233H54.2657H54.2978H54.3293H54.36H54.3901H54.4194H54.4481H54.4761H54.5034H54.53H54.556H54.5812H54.6057H54.6294H54.6525H54.6749H54.6965H54.7175H54.7377H54.7572H54.7759H54.7939H54.8112H54.8278H54.8436H54.8587H54.873H54.8866H54.8994H54.9115H54.9228H54.9333H54.9431H54.9521H54.9604H54.9679H54.9746H54.9805H54.9856H54.99H54.9936H54.9963H54.9983H54.9995C54.9998 15.4 54.9999 15.4 54.9999 15V15.4C55.5569 15.4 56.091 15.6212 56.4849 16.0151C56.8787 16.4089 57.0999 16.943 57.0999 17.5V22.5V22.9H57.4999H64.9999H65.0002C65.4111 22.8998 65.813 23.0202 66.156 23.2464C66.499 23.4726 66.768 23.7946 66.9297 24.1724L66.9298 24.1726L74.4298 41.6726ZM22.4999 65.4H22.5003C23.932 65.3986 25.3045 64.8292 26.3169 63.8169C27.3292 62.8046 27.8985 61.432 27.8999 60.0004V60C27.8999 58.932 27.5832 57.8879 26.9899 56.9999C26.3965 56.1119 25.5531 55.4198 24.5664 55.0111C23.5797 54.6023 22.4939 54.4954 21.4465 54.7038C20.399 54.9121 19.4368 55.4264 18.6816 56.1816C17.9264 56.9368 17.4121 57.899 17.2037 58.9465C16.9953 59.994 17.1023 61.0798 17.511 62.0665C17.9197 63.0532 18.6118 63.8966 19.4999 64.4899C20.3879 65.0833 21.4319 65.4 22.4999 65.4ZM57.4999 27.1H57.0999V27.5V40V40.4H57.4999H68.7099H69.3167L69.0776 39.8424L63.7176 27.3424L63.6136 27.1H63.3499H57.4999ZM62.8999 60.0004V60C62.8999 58.932 62.5832 57.8879 61.9899 56.9999C61.3965 56.1119 60.5532 55.4198 59.5664 55.0111C58.5797 54.6023 57.4939 54.4954 56.4464 54.7038C55.399 54.9121 54.4368 55.4264 53.6816 56.1816C52.9264 56.9368 52.4121 57.899 52.2037 58.9465C51.9953 59.994 52.1023 61.0798 52.511 62.0665C52.9197 63.0532 53.6118 63.8966 54.4999 64.4899C55.3879 65.0833 56.4319 65.4 57.4999 65.4H57.5003C58.932 65.3986 60.3045 64.8292 61.3169 63.8169C62.3292 62.8046 62.8985 61.432 62.8999 60.0004ZM69.9999 57.9H70.3999V57.5V45V44.6H69.9999H57.4999H57.0999V45V50V50.3989L57.4988 50.4C59.6214 50.4059 61.6819 51.116 63.3575 52.4189C65.0331 53.7218 66.2289 55.544 66.7575 57.5996L66.8348 57.9H67.1449H69.9999Z" fill="#242424" stroke="white" stroke-width="0.8"/>
</svg>
