<svg width="80" height="80" viewBox="0 0 80 80" fill="none" xmlns="http://www.w3.org/2000/svg">
<path fill-rule="evenodd" clip-rule="evenodd" d="M34.7998 9.92097C38.1378 8.58559 41.8617 8.58559 45.1998 9.92097L68.2278 19.137C69.3408 19.5821 70.2949 20.3504 70.9672 21.3428C71.6395 22.3352 71.9992 23.5063 71.9998 24.705V48.4336C70.8332 47.2236 69.4852 46.1896 67.9998 45.3753V24.949L41.9998 35.349V66.869C42.5798 66.749 43.1518 66.577 43.7118 66.357L44.4673 66.0548C44.9607 67.3197 45.6042 68.5096 46.3759 69.6025L45.1998 70.073C41.8617 71.4084 38.1378 71.4084 34.7998 70.073L11.7718 60.861C10.6581 60.4156 9.70353 59.6467 9.03118 58.6535C8.35882 57.6603 7.99956 56.4884 7.99976 55.289V24.705C8.00115 23.507 8.36116 22.3368 9.03342 21.3451C9.70567 20.3535 10.6594 19.5858 11.7718 19.141L34.7998 9.92097ZM43.7158 13.641C41.3316 12.6873 38.6719 12.6873 36.2878 13.641H36.2838L30.8838 15.801L55.4998 25.641L64.6158 22.001L43.7158 13.641ZM50.1158 27.793L25.4998 17.949V17.953L15.3838 21.997L39.9998 31.845L50.1158 27.793ZM37.9998 66.869V35.353L11.9998 24.953V55.289C11.9998 55.6884 12.1195 56.0786 12.3434 56.4094C12.5672 56.7402 12.885 56.9964 13.2558 57.145L36.2878 66.357C36.8421 66.5782 37.415 66.7496 37.9998 66.869Z" fill="#242424"/>
<path d="M45.1998 9.92097L45.3484 9.54961L45.3483 9.54959L45.1998 9.92097ZM34.7998 9.92097L34.6512 9.54959L34.6511 9.54963L34.7998 9.92097ZM68.2278 19.137L68.0791 19.5083L68.0792 19.5084L68.2278 19.137ZM70.9672 21.3428L70.6361 21.5671L70.6361 21.5671L70.9672 21.3428ZM71.9998 24.705L72.3998 24.705L72.3998 24.7048L71.9998 24.705ZM71.9998 48.4336L71.7118 48.7112L72.3998 49.4248V48.4336H71.9998ZM67.9998 45.3753H67.5998V45.6122L67.8075 45.726L67.9998 45.3753ZM67.9998 24.949H68.3998V24.3582L67.8512 24.5776L67.9998 24.949ZM41.9998 35.349L41.8512 34.9776L41.5998 35.0782V35.349H41.9998ZM41.9998 66.869H41.5998V67.3602L42.0808 67.2607L41.9998 66.869ZM43.7118 66.357L43.858 66.7293L43.8603 66.7284L43.7118 66.357ZM44.4673 66.0548L44.8399 65.9094L44.6933 65.5336L44.3187 65.6834L44.4673 66.0548ZM46.3759 69.6025L46.5244 69.9739L46.9949 69.7857L46.7026 69.3718L46.3759 69.6025ZM45.1998 70.073L45.0512 69.7016L45.0512 69.7016L45.1998 70.073ZM34.7998 70.073L34.9483 69.7016L34.9483 69.7016L34.7998 70.073ZM11.7718 60.861L11.9203 60.4896L11.9203 60.4896L11.7718 60.861ZM9.03118 58.6535L8.69994 58.8777L8.69994 58.8777L9.03118 58.6535ZM7.99976 55.289L8.39976 55.289V55.289H7.99976ZM7.99976 24.705L7.59976 24.7045V24.705H7.99976ZM9.03342 21.3451L9.36451 21.5696L9.36451 21.5696L9.03342 21.3451ZM11.7718 19.141L11.9203 19.5124L11.9204 19.5123L11.7718 19.141ZM36.2878 13.641V14.041H36.3648L36.4363 14.0124L36.2878 13.641ZM43.7158 13.641L43.5672 14.0124L43.5672 14.0124L43.7158 13.641ZM36.2838 13.641V13.241H36.2067L36.1352 13.2696L36.2838 13.641ZM30.8838 15.801L30.7352 15.4296L29.8064 15.8011L30.7353 16.1724L30.8838 15.801ZM55.4998 25.641L55.3513 26.0124L55.4997 26.0717L55.6481 26.0125L55.4998 25.641ZM64.6158 22.001L64.7641 22.3725L65.6936 22.0013L64.7643 21.6296L64.6158 22.001ZM25.4998 17.949L25.6483 17.5776L25.0998 17.3582V17.949H25.4998ZM50.1158 27.793L50.2645 28.1643L51.1923 27.7927L50.2643 27.4216L50.1158 27.793ZM25.4998 17.953L25.6482 18.3244L25.8998 18.2238V17.953H25.4998ZM15.3838 21.997L15.2353 21.6256L14.3065 21.9968L15.2352 22.3684L15.3838 21.997ZM39.9998 31.845L39.8512 32.2164L39.9999 32.2758L40.1485 32.2163L39.9998 31.845ZM37.9998 35.353H38.3998V35.0822L38.1483 34.9816L37.9998 35.353ZM37.9998 66.869L37.9197 67.2609L38.3998 67.3589V66.869H37.9998ZM11.9998 24.953L12.1483 24.5816L11.5998 24.3622V24.953H11.9998ZM11.9998 55.289L11.5998 55.289L11.5998 55.2891L11.9998 55.289ZM12.3434 56.4094L12.6747 56.1852L12.6747 56.1852L12.3434 56.4094ZM13.2558 57.145L13.107 57.5163L13.1072 57.5164L13.2558 57.145ZM36.2878 66.357L36.1392 66.7284L36.1395 66.7285L36.2878 66.357ZM45.3483 9.54959C41.9149 8.17605 38.0846 8.17605 34.6512 9.54959L34.9483 10.2924C38.191 8.99513 41.8085 8.99513 45.0512 10.2924L45.3483 9.54959ZM68.3764 18.7656L45.3484 9.54961L45.0511 10.2923L68.0791 19.5083L68.3764 18.7656ZM71.2984 21.1185C70.5813 20.0599 69.5635 19.2404 68.3763 18.7656L68.0792 19.5084C69.118 19.9238 70.0086 20.6409 70.6361 21.5671L71.2984 21.1185ZM72.3998 24.7048C72.3991 23.4262 72.0155 22.177 71.2984 21.1185L70.6361 21.5671C71.2635 22.4934 71.5992 23.5864 71.5998 24.7052L72.3998 24.7048ZM72.3998 48.4336V24.705H71.5998V48.4336H72.3998ZM67.8075 45.726C69.2573 46.5207 70.573 47.53 71.7118 48.7112L72.2877 48.1559C71.0933 46.9171 69.7132 45.8584 68.192 45.0245L67.8075 45.726ZM67.5998 24.949V45.3753H68.3998V24.949H67.5998ZM42.1483 35.7204L68.1483 25.3204L67.8512 24.5776L41.8512 34.9776L42.1483 35.7204ZM42.3998 66.869V35.349H41.5998V66.869H42.3998ZM43.5655 65.9847C43.0257 66.1967 42.4755 66.3621 41.9187 66.4773L42.0808 67.2607C42.684 67.1359 43.2778 66.9572 43.858 66.7293L43.5655 65.9847ZM44.3187 65.6834L43.5632 65.9856L43.8603 66.7284L44.6158 66.4262L44.3187 65.6834ZM46.7026 69.3718C45.9494 68.305 45.3214 67.1438 44.8399 65.9094L44.0946 66.2002C44.6 67.4957 45.259 68.7142 46.0491 69.8332L46.7026 69.3718ZM45.3483 70.4444L46.5244 69.9739L46.2273 69.2311L45.0512 69.7016L45.3483 70.4444ZM34.6512 70.4444C38.0846 71.8179 41.9149 71.8179 45.3483 70.4444L45.0512 69.7016C41.8085 70.9988 38.191 70.9988 34.9483 69.7016L34.6512 70.4444ZM11.6232 61.2324L34.6512 70.4444L34.9483 69.7016L11.9203 60.4896L11.6232 61.2324ZM8.69994 58.8777C9.41712 59.9371 10.4354 60.7573 11.6232 61.2324L11.9203 60.4896C10.8809 60.0739 9.98995 59.3562 9.36241 58.4293L8.69994 58.8777ZM7.59976 55.2889C7.59954 56.5682 7.98276 57.8183 8.69994 58.8777L9.36242 58.4293C8.73488 57.5023 8.39957 56.4085 8.39976 55.289L7.59976 55.2889ZM7.59976 24.705V55.289H8.39976V24.705H7.59976ZM8.70233 21.1207C7.98526 22.1784 7.60125 23.4266 7.59976 24.7045L8.39976 24.7054C8.40106 23.5873 8.73707 22.4951 9.36451 21.5696L8.70233 21.1207ZM11.6232 18.7696C10.4367 19.2441 9.4194 20.0629 8.70233 21.1207L9.36451 21.5696C9.99194 20.6441 10.8821 19.9276 11.9203 19.5124L11.6232 18.7696ZM34.6511 9.54963L11.6231 18.7696L11.9204 19.5123L34.9484 10.2923L34.6511 9.54963ZM36.4363 14.0124C38.7251 13.0968 41.2784 13.0968 43.5672 14.0124L43.8643 13.2696C41.3848 12.2777 38.6187 12.2777 36.1392 13.2696L36.4363 14.0124ZM36.2838 14.041H36.2878V13.241H36.2838V14.041ZM31.0323 16.1724L36.4323 14.0124L36.1352 13.2696L30.7352 15.4296L31.0323 16.1724ZM55.6482 25.2695L31.0322 15.4295L30.7353 16.1724L55.3513 26.0124L55.6482 25.2695ZM64.4674 21.6295L55.3514 25.2695L55.6481 26.0125L64.7641 22.3725L64.4674 21.6295ZM43.5672 14.0124L64.4672 22.3724L64.7643 21.6296L43.8643 13.2696L43.5672 14.0124ZM25.3512 18.3204L49.9672 28.1644L50.2643 27.4216L25.6483 17.5776L25.3512 18.3204ZM25.8998 17.953V17.949H25.0998V17.953H25.8998ZM15.5322 22.3684L25.6482 18.3244L25.3513 17.5816L15.2353 21.6256L15.5322 22.3684ZM40.1483 31.4736L15.5323 21.6256L15.2352 22.3684L39.8512 32.2164L40.1483 31.4736ZM49.967 27.4217L39.851 31.4737L40.1485 32.2163L50.2645 28.1643L49.967 27.4217ZM37.5998 35.353V66.869H38.3998V35.353H37.5998ZM11.8512 25.3244L37.8512 35.7244L38.1483 34.9816L12.1483 24.5816L11.8512 25.3244ZM12.3998 55.289V24.953H11.5998V55.289H12.3998ZM12.6747 56.1852C12.4956 55.9206 12.3998 55.6084 12.3998 55.2889L11.5998 55.2891C11.5999 55.7684 11.7435 56.2366 12.0121 56.6336L12.6747 56.1852ZM13.4046 56.7737C13.108 56.6548 12.8537 56.4499 12.6747 56.1852L12.0121 56.6336C12.2807 57.0305 12.6621 57.338 13.107 57.5163L13.4046 56.7737ZM36.4363 65.9856L13.4043 56.7736L13.1072 57.5164L36.1392 66.7284L36.4363 65.9856ZM38.0798 66.4771C37.5183 66.3624 36.9682 66.1979 36.436 65.9855L36.1395 66.7285C36.7159 66.9585 37.3117 67.1367 37.9197 67.2609L38.0798 66.4771Z" fill="white"/>
<circle cx="60.0001" cy="59.9998" r="11.8333" fill="white" stroke="#242424" stroke-width="3"/>
<path d="M55.5557 60H64.4446" stroke="#242424" stroke-width="2" stroke-linecap="round" stroke-linejoin="round"/>
<path d="M60.0001 63.8891L64.4446 60.0002L60.0001 56.1113" stroke="#242424" stroke-width="2" stroke-linecap="round" stroke-linejoin="round"/>
</svg>
