<svg width="80" height="80" viewBox="0 0 80 80" fill="none" xmlns="http://www.w3.org/2000/svg">
<path d="M63.75 28V43.4125L60.25 46.9125V28C60.25 27.8619 60.1381 27.75 60 27.75H48C47.8619 27.75 47.75 27.8619 47.75 28V35.7525C46.5334 35.7769 45.3574 35.9787 44.25 36.3325V28C44.25 27.8619 44.1381 27.75 44 27.75H20C19.8619 27.75 19.75 27.8619 19.75 28V60C19.75 62.188 20.6192 64.2865 22.1664 65.8336C23.7135 67.3808 25.812 68.25 28 68.25H39.9973C39.6653 69.393 39.6653 70.6071 39.9973 71.75H28C24.8837 71.75 21.895 70.5121 19.6915 68.3085C17.4879 66.105 16.25 63.1163 16.25 60V28C16.25 27.0054 16.6451 26.0516 17.3484 25.3484C18.0516 24.6451 19.0054 24.25 20 24.25H24C24.1381 24.25 24.25 24.1381 24.25 24V18C24.25 15.4141 25.2772 12.9342 27.1057 11.1057C28.9342 9.27723 31.4141 8.25 34 8.25C36.196 8.25 38.2196 8.97527 39.8498 10.1999C39.9387 10.2667 40.0611 10.2667 40.15 10.2C41.5986 9.11359 43.321 8.45201 45.1244 8.2894C46.9278 8.12679 48.7408 8.46957 50.3603 9.27934C51.9799 10.0891 53.3419 11.3339 54.2938 12.8741C55.2458 14.4144 55.75 16.1893 55.75 18V24C55.75 24.1381 55.8619 24.25 56 24.25H60C60.9946 24.25 61.9484 24.6451 62.6516 25.3484C63.3549 26.0516 63.75 27.0054 63.75 28ZM27.75 24C27.75 24.1381 27.8619 24.25 28 24.25H40C40.1381 24.25 40.25 24.1381 40.25 24V18C40.25 16.3424 39.5915 14.7527 38.4194 13.5806C37.2473 12.4085 35.6576 11.75 34 11.75C32.3424 11.75 30.7527 12.4085 29.5806 13.5806C28.4085 14.7527 27.75 16.3424 27.75 18V24ZM42.5291 12.8001C42.4197 12.8733 42.3857 13.0187 42.4514 13.1328C43.2781 14.5679 43.75 16.229 43.75 18V24C43.75 24.1381 43.8619 24.25 44 24.25H52C52.1381 24.25 52.25 24.1381 52.25 24V18C52.25 16.3424 51.5915 14.7527 50.4194 13.5806C49.2473 12.4085 47.6576 11.75 46 11.75C44.7171 11.75 43.521 12.1375 42.5291 12.8001ZM48 43.75C46.8728 43.75 45.7918 44.1978 44.9948 44.9948C44.1978 45.7918 43.75 46.8728 43.75 48C43.75 49.1272 44.1978 50.2082 44.9948 51.0052C45.7918 51.8022 46.8728 52.25 48 52.25C49.1272 52.25 50.2082 51.8022 51.0052 51.0052C51.8022 50.2082 52.25 49.1272 52.25 48C52.25 46.8728 51.8022 45.7918 51.0052 44.9948C50.2082 44.1978 49.1272 43.75 48 43.75ZM68 75.75C65.9446 75.75 63.9733 74.9335 62.5199 73.4801C61.0665 72.0267 60.25 70.0554 60.25 68C60.25 65.9446 61.0665 63.9733 62.5199 62.5199C63.9733 61.0665 65.9446 60.25 68 60.25C70.0554 60.25 72.0267 61.0665 73.4801 62.5199C74.9335 63.9733 75.75 65.9446 75.75 68C75.75 70.0554 74.9335 72.0267 73.4801 73.4801C72.0267 74.9335 70.0554 75.75 68 75.75ZM53.4801 53.4801C52.0267 54.9335 50.0554 55.75 48 55.75C45.9446 55.75 43.9733 54.9335 42.5199 53.4801C41.0665 52.0267 40.25 50.0554 40.25 48C40.25 45.9446 41.0665 43.9733 42.5199 42.5199C43.9733 41.0665 45.9446 40.25 48 40.25C50.0554 40.25 52.0267 41.0665 53.4801 42.5199C54.9335 43.9733 55.75 45.9446 55.75 48C55.75 50.0554 54.9335 52.0267 53.4801 53.4801ZM71.0052 64.9948C70.2082 64.1978 69.1272 63.75 68 63.75C66.8728 63.75 65.7918 64.1978 64.9948 64.9948C64.1978 65.7918 63.75 66.8728 63.75 68C63.75 69.1272 64.1978 70.2082 64.9948 71.0052C65.7918 71.8022 66.8728 72.25 68 72.25C69.1272 72.25 70.2082 71.8022 71.0052 71.0052C71.8022 70.2082 72.25 69.1272 72.25 68C72.25 66.8728 71.8022 65.7918 71.0052 64.9948ZM71.7525 46C71.7525 46.4648 71.5679 46.9106 71.2392 47.2392L47.2392 71.2392C46.9106 71.5679 46.4648 71.7525 46 71.7525C45.5352 71.7525 45.0894 71.5679 44.7608 71.2392C44.4321 70.9106 44.2475 70.4648 44.2475 70C44.2475 69.5352 44.4321 69.0895 44.7608 68.7608L68.7608 44.7608C69.0894 44.4321 69.5352 44.2475 70 44.2475C70.4648 44.2475 70.9106 44.4321 71.2392 44.7608C71.5679 45.0894 71.7525 45.5352 71.7525 46Z" fill="#242424" stroke="white" stroke-width="0.5" stroke-linejoin="round"/>
</svg>
