<svg width="15" height="18" viewBox="0 0 15 18" fill="none" xmlns="http://www.w3.org/2000/svg">
<g clip-path="url(#clip0_1501_5553)">
<path d="M2.41591 0.427257C2.80241 0.381489 3.20334 0.465192 3.53719 0.663468C3.87942 0.864049 4.15008 1.1812 4.29169 1.54903C4.44216 1.93422 4.44883 2.37178 4.31095 2.76142C4.17399 3.15429 3.89091 3.49463 3.52818 3.70427C3.18424 3.90623 2.7698 3.98579 2.37414 3.92989C1.94992 3.87275 1.55085 3.65605 1.27228 3.33475C1.00784 3.03388 0.852406 2.64193 0.839673 2.24338C0.823213 1.82518 0.964362 1.40328 1.23036 1.07768C1.51902 0.718298 1.95458 0.478093 2.41591 0.427257Z" fill="#FF8A00"/>
<path d="M0.908203 4.70801C2.05215 4.70801 3.19594 4.70801 4.33988 4.70801C4.33895 4.84946 4.34407 4.99106 4.33149 5.13205C3.50354 5.49758 2.74143 6.0193 2.1287 6.68248C1.63305 7.21879 1.2405 7.85309 1.01364 8.54575C0.978545 8.54975 0.943296 8.55436 0.908203 8.55927C0.908203 7.27546 0.908203 5.99181 0.908203 4.70801Z" fill="#FF8A00"/>
<path d="M6.72663 4.86172C7.1066 4.81657 7.49045 4.79538 7.87275 4.82271C9.22368 4.90672 10.5563 5.37178 11.6356 6.185C11.7164 6.24858 11.8024 6.30556 11.8835 6.36899C12.3558 6.73068 12.7605 7.18038 13.0608 7.69166C13.1457 7.84232 13.2409 7.987 13.3217 8.13997C13.6741 8.7887 13.9088 9.50087 14.0046 10.2315C14.0293 10.4046 14.035 10.5793 14.0468 10.7537C14.1741 12.8974 14.0641 15.0445 14.0914 17.19C13.0175 17.19 11.9436 17.19 10.8695 17.19C10.8695 16.3184 10.8695 15.447 10.8695 14.5754C10.8709 13.649 10.8665 12.7221 10.872 11.796C10.8569 11.0144 10.5987 10.2477 10.1839 9.58611C9.70349 8.83939 8.90334 8.2808 8.01048 8.1541C7.31514 8.06179 6.5729 8.15041 5.9653 8.51486C5.48672 8.77903 5.09138 9.17635 4.80194 9.63418C4.42415 10.2319 4.20893 10.9241 4.14651 11.6245C4.14511 13.4796 4.14635 15.3349 4.14588 17.19C3.07182 17.19 1.9979 17.19 0.92399 17.19C0.931288 16.7947 0.926319 16.3991 0.927717 16.0038C0.917158 14.7547 0.897593 13.5053 0.913431 12.2562C0.923835 11.6963 0.940916 11.1364 0.975698 10.5773C1.04495 9.56154 1.3934 8.57169 1.94387 7.71377C2.29045 7.08608 2.82352 6.58079 3.40396 6.16411C3.74542 5.91807 4.10443 5.69445 4.48502 5.51215C5.18812 5.17242 5.95039 4.95572 6.72663 4.86172Z" fill="#7A7D8C"/>
</g>
<defs>
<clipPath id="clip0_1501_5553">
<rect width="15" height="18" fill="white"/>
</clipPath>
</defs>
</svg>
