<svg width="14" height="10" viewBox="0 0 14 10" fill="none" xmlns="http://www.w3.org/2000/svg">
<path d="M0.333252 1.00016C0.333252 0.823352 0.40349 0.653783 0.528514 0.528758C0.653538 0.403734 0.823108 0.333496 0.999919 0.333496H12.9999C13.1767 0.333496 13.3463 0.403734 13.4713 0.528758C13.5963 0.653783 13.6666 0.823352 13.6666 1.00016C13.6666 1.17697 13.5963 1.34654 13.4713 1.47157C13.3463 1.59659 13.1767 1.66683 12.9999 1.66683H0.999919C0.823108 1.66683 0.653538 1.59659 0.528514 1.47157C0.40349 1.34654 0.333252 1.17697 0.333252 1.00016ZM0.333252 5.0215C0.333252 4.84469 0.40349 4.67512 0.528514 4.55009C0.653538 4.42507 0.823108 4.35483 0.999919 4.35483H12.9999C13.1767 4.35483 13.3463 4.42507 13.4713 4.55009C13.5963 4.67512 13.6666 4.84469 13.6666 5.0215C13.6666 5.19831 13.5963 5.36788 13.4713 5.4929C13.3463 5.61793 13.1767 5.68816 12.9999 5.68816H0.999919C0.823108 5.68816 0.653538 5.61793 0.528514 5.4929C0.40349 5.36788 0.333252 5.19831 0.333252 5.0215ZM0.999919 8.37616C0.823108 8.37616 0.653538 8.4464 0.528514 8.57143C0.40349 8.69645 0.333252 8.86602 0.333252 9.04283C0.333252 9.21964 0.40349 9.38921 0.528514 9.51423C0.653538 9.63926 0.823108 9.7095 0.999919 9.7095H12.9999C13.1767 9.7095 13.3463 9.63926 13.4713 9.51423C13.5963 9.38921 13.6666 9.21964 13.6666 9.04283C13.6666 8.86602 13.5963 8.69645 13.4713 8.57143C13.3463 8.4464 13.1767 8.37616 12.9999 8.37616H0.999919Z" fill="white"/>
</svg>
