<svg width="14" height="14" viewBox="0 0 14 14" fill="none" xmlns="http://www.w3.org/2000/svg">
<path d="M9.16507 9.24002L10.2851 8.12002C10.4359 7.97104 10.6268 7.86906 10.8345 7.82646C11.0422 7.78385 11.2577 7.80246 11.4551 7.88002L12.8201 8.42502C13.0195 8.50596 13.1905 8.64411 13.3115 8.82207C13.4325 9.00003 13.4981 9.20983 13.5001 9.42502V11.925C13.4989 12.0714 13.4681 12.216 13.4096 12.3502C13.3511 12.4844 13.266 12.6054 13.1595 12.7058C13.053 12.8062 12.9272 12.8841 12.7899 12.9346C12.6525 12.9852 12.5063 13.0074 12.3601 13C2.79507 12.405 0.865067 4.30502 0.500067 1.20502C0.483123 1.05279 0.498604 0.898694 0.545491 0.752875C0.592378 0.607056 0.669608 0.472817 0.7721 0.358988C0.874593 0.24516 1.00003 0.154323 1.14015 0.0924523C1.28027 0.0305818 1.4319 -0.00091958 1.58507 2.04345e-05H4.00007C4.21557 0.000658328 4.42596 0.0657541 4.60416 0.186935C4.78237 0.308116 4.92025 0.47984 5.00007 0.68002L5.54507 2.04502C5.62519 2.24155 5.64564 2.45734 5.60384 2.66543C5.56205 2.87351 5.45987 3.06467 5.31007 3.21502L4.19007 4.33502C4.19007 4.33502 4.83507 8.70002 9.16507 9.24002Z" fill="#242424"/>
</svg>
