<svg width="40" height="40" viewBox="0 0 40 40" fill="none" xmlns="http://www.w3.org/2000/svg">
<rect width="40" height="40" rx="20" fill="url(#paint0_linear_1501_5525)"/>
<path d="M29.9491 15.8798C29.9021 14.815 29.7299 14.0869 29.4833 13.4527C29.2288 12.7794 28.8373 12.1805 28.3284 11.6794C27.8274 11.1705 27.2206 10.7751 26.559 10.5285C25.9209 10.2819 25.1967 10.1096 24.1319 10.0626C23.0593 10.0117 22.7187 10 20.002 10C17.2852 10 16.9446 10.0117 15.8798 10.0587C14.815 10.1057 14.0869 10.2779 13.4527 10.5246C12.7794 10.779 12.1805 11.1705 11.6794 11.6794C11.1705 12.1805 10.7751 12.7872 10.5285 13.4488C10.2819 14.0869 10.1096 14.8111 10.0626 15.8759C10.0117 16.9485 10 17.2891 10 20.002C10 22.7148 10.0117 23.0593 10.0587 24.1241C10.1057 25.1889 10.2779 25.917 10.5246 26.5512C10.779 27.2245 11.1744 27.8234 11.6794 28.3245C12.1805 28.8334 12.7872 29.2288 13.4488 29.4754C14.0869 29.7221 14.8111 29.8943 15.8759 29.9413C16.9407 29.9883 17.2813 30 19.998 30C22.7148 30 23.0554 29.9883 24.1202 29.9413C25.185 29.8943 25.9131 29.7221 26.5473 29.4754C27.89 28.9548 28.9548 27.8939 29.4754 26.5473C29.7221 25.9092 29.8943 25.185 29.9413 24.1202C29.9883 23.0515 30 22.7148 30 19.998C30 17.2813 29.9961 16.9485 29.9491 15.8798ZM28.1484 24.0497C28.1053 25.0284 27.9409 25.5529 27.8039 25.9053C27.4672 26.7782 26.7743 27.4672 25.9053 27.8039C25.5529 27.9409 25.0206 28.1053 24.0497 28.1484C22.9928 28.1953 22.6796 28.2071 20.0098 28.2071C17.34 28.2071 17.019 28.1953 15.9699 28.1484C14.9912 28.1053 14.4666 27.9409 14.1143 27.8039C13.6798 27.6434 13.2844 27.3889 12.9673 27.0562C12.6346 26.7313 12.3801 26.3398 12.2196 25.9092C12.0826 25.5569 11.9182 25.0245 11.8751 24.0536C11.8281 22.9967 11.8164 22.6835 11.8164 20.0137C11.8164 17.3439 11.8281 17.0229 11.8751 15.9738C11.9182 14.9951 12.0826 14.4705 12.2196 14.1182C12.3762 13.6798 12.6307 13.2883 12.9673 12.9673C13.2922 12.6346 13.6837 12.3801 14.1143 12.2196C14.4666 12.0826 14.999 11.9182 15.9699 11.8751C17.0268 11.8281 17.34 11.8164 20.0098 11.8164C22.6835 11.8164 23.0006 11.8281 24.0497 11.8751C25.0284 11.9182 25.5529 12.0826 25.9053 12.2196C26.3398 12.3801 26.7352 12.6346 27.0523 12.9673C27.385 13.2922 27.6395 13.6837 27.8 14.1182C27.937 14.4705 28.1014 15.0029 28.1445 15.9738C28.1914 17.0307 28.2032 17.3439 28.2032 20.0137C28.2032 22.6835 28.1953 22.9928 28.1484 24.0497Z" fill="white"/>
<path d="M20.002 14.8659C17.1638 14.8659 14.862 17.1677 14.862 20.0059C14.862 22.844 17.1638 25.1458 20.002 25.1458C22.8401 25.1458 25.1419 22.844 25.1419 20.0059C25.1419 17.1677 22.8401 14.8659 20.002 14.8659ZM20.002 23.3373C18.1621 23.3373 16.6667 21.8458 16.6667 20.002C16.6667 18.1582 18.1582 16.6667 20.002 16.6667C21.8418 16.6667 23.3372 18.1582 23.3372 20.002C23.3372 21.8458 21.8458 23.3373 20.002 23.3373Z" fill="white"/>
<path d="M26.5473 14.6624C26.5473 15.3239 26.011 15.8602 25.3494 15.8602C24.6878 15.8602 24.1515 15.3239 24.1515 14.6624C24.1515 14.0008 24.6878 13.4645 25.3494 13.4645C26.007 13.4606 26.5473 14.0008 26.5473 14.6624Z" fill="white"/>
<defs>
<linearGradient id="paint0_linear_1501_5525" x1="0" y1="0" x2="40" y2="40" gradientUnits="userSpaceOnUse">
<stop stop-color="#FADE1E"/>
<stop offset="0.539583" stop-color="#F83286"/>
<stop offset="1" stop-color="#9843F9"/>
</linearGradient>
</defs>
</svg>
