<svg width="16" height="15" viewBox="0 0 16 15" fill="#F4BB28" xmlns="http://www.w3.org/2000/svg">
    <path d="M14.9628 5.20645L10.4997 4.55782L8.5046 0.513092C8.45011 0.40235 8.36046 0.312702 8.24972 0.25821C7.97198 0.1211 7.63448 0.235358 7.49562 0.513092L5.5005 4.55782L1.03741 5.20645C0.914367 5.22403 0.801867 5.28204 0.715734 5.36993C0.611604 5.47695 0.554224 5.62094 0.556202 5.77026C0.558179 5.91957 0.619353 6.06199 0.726281 6.16622L3.95538 9.31446L3.19249 13.76C3.1746 13.8634 3.18605 13.9697 3.22552 14.067C3.265 14.1642 3.33094 14.2484 3.41585 14.3101C3.50077 14.3718 3.60127 14.4084 3.70595 14.4159C3.81063 14.4234 3.91531 14.4014 4.00812 14.3523L8.00011 12.2535L11.9921 14.3523C12.1011 14.4104 12.2276 14.4297 12.3489 14.4086C12.6548 14.3559 12.8605 14.0658 12.8077 13.76L12.0448 9.31446L15.2739 6.16622C15.3618 6.08008 15.4198 5.96758 15.4374 5.84454C15.4849 5.53692 15.2704 5.25215 14.9628 5.20645Z" />
</svg>