<svg width="80" height="80" viewBox="0 0 80 80" fill="none" xmlns="http://www.w3.org/2000/svg">
<path d="M10.9334 7.39998C10.4595 6.95838 9.83268 6.71797 9.18501 6.72939C8.53734 6.74082 7.91939 7.00319 7.46134 7.46124C7.0033 7.91928 6.74093 8.53723 6.7295 9.1849C6.71807 9.83257 6.95848 10.4594 7.40008 10.9333L13.1934 16.7333C11.3888 16.9695 9.73169 17.8538 8.53088 19.2214C7.33008 20.5891 6.66753 22.3467 6.66675 24.1666V49.1666C6.66675 51.1558 7.45692 53.0634 8.86345 54.4699C10.27 55.8765 12.1776 56.6666 14.1667 56.6666H53.1334L58.1134 61.65C57.9091 61.6606 57.7046 61.6662 57.5001 61.6666H14.6701C15.5478 63.1875 16.8106 64.4504 18.3314 65.3281C19.8522 66.2059 21.5775 66.6675 23.3334 66.6666H57.5001C59.2001 66.6666 60.8334 66.4 62.3667 65.9033L69.0667 72.6033C69.2975 72.842 69.5734 73.0323 69.8785 73.1632C70.1836 73.2941 70.5117 73.3629 70.8436 73.3656C71.1755 73.3683 71.5047 73.3049 71.8119 73.1791C72.1191 73.0532 72.3981 72.8675 72.6327 72.6326C72.8674 72.3978 73.0529 72.1186 73.1784 71.8113C73.304 71.504 73.3671 71.1747 73.364 70.8428C73.361 70.5108 73.2919 70.1828 73.1607 69.8779C73.0295 69.5729 72.839 69.2972 72.6001 69.0666L10.9334 7.39998ZM48.1334 51.6666H21.6667V49.1666C21.6667 47.1775 20.8766 45.2699 19.47 43.8633C18.0635 42.4568 16.1559 41.6666 14.1667 41.6666H11.6667V31.6666H14.1667C15.9873 31.6667 17.7457 31.0045 19.114 29.8036C20.4823 28.6027 21.3671 26.9451 21.6034 25.14L27.0567 30.5933C25.5817 32.5181 24.8563 34.9134 25.0157 37.3331C25.175 39.7529 26.2082 42.0323 27.923 43.7471C29.6377 45.4618 31.9172 46.495 34.3369 46.6544C36.7567 46.8137 39.1519 46.0884 41.0767 44.6133L48.1301 51.6666H48.1334ZM30.6567 34.19L37.4767 41.01C36.5246 41.5528 35.4205 41.7677 34.3343 41.6216C33.2481 41.4756 32.2399 40.9767 31.465 40.2018C30.69 39.4268 30.1911 38.4186 30.0451 37.3324C29.8991 36.2462 30.114 35.1421 30.6567 34.19V34.19ZM11.6667 24.1666C11.6667 23.5036 11.9301 22.8677 12.399 22.3989C12.8678 21.93 13.5037 21.6666 14.1667 21.6666H16.6667V24.1666C16.6667 24.8297 16.4034 25.4656 15.9345 25.9344C15.4657 26.4033 14.8298 26.6666 14.1667 26.6666H11.6667V24.1666ZM14.1667 51.6666C13.5037 51.6666 12.8678 51.4033 12.399 50.9344C11.9301 50.4656 11.6667 49.8297 11.6667 49.1666V46.6666H14.1667C14.8298 46.6666 15.4657 46.93 15.9345 47.3989C16.4034 47.8677 16.6667 48.5036 16.6667 49.1666V51.6666H14.1667ZM55.8334 41.6666C54.8168 41.6655 53.8107 41.8719 52.8767 42.2733L57.2667 46.6666H58.3301V47.7333L62.7234 52.1233C63.1248 51.1893 63.3312 50.1832 63.3301 49.1666V24.1666C63.3301 22.1781 62.5404 20.2709 61.1346 18.8645C59.7288 17.4581 57.822 16.6675 55.8334 16.6666H27.2667L32.2667 21.6666H48.3334V24.1666C48.3334 25.1516 48.5274 26.1268 48.9043 27.0368C49.2812 27.9467 49.8337 28.7735 50.5301 29.4699C51.9366 30.8765 53.8443 31.6666 55.8334 31.6666H58.3334V41.6666H55.8334ZM58.3334 24.1666V26.6666H55.8334C55.1704 26.6666 54.5345 26.4033 54.0656 25.9344C53.5968 25.4656 53.3334 24.8297 53.3334 24.1666V21.6666H55.8334C56.4965 21.6666 57.1323 21.93 57.6012 22.3989C58.07 22.8677 58.3334 23.5036 58.3334 24.1666ZM66.8734 56.27L70.4901 59.8866C72.2834 57.32 73.3334 54.2 73.3334 50.8333V33.3333C73.334 31.5774 72.8721 29.8523 71.9944 28.3316C71.1167 26.8108 69.8541 25.5479 68.3334 24.67V50.8333C68.3359 52.7427 67.8321 54.6187 66.8734 56.27V56.27Z" fill="#242424" stroke="white" stroke-width="1.5"/>
</svg>
