<svg width="21" height="23" viewBox="0 0 21 23" fill="none" xmlns="http://www.w3.org/2000/svg">
<path d="M5.73805 6.6167H15.2619C16.6904 6.6167 17.8809 8.02095 18.119 9.42521L19.5476 18.7869C19.7858 20.1919 18.119 21.5954 16.6904 21.5954H4.30948C2.88091 21.5954 1.21412 20.1919 1.45234 18.7869L2.88091 9.42521C3.11901 8.02095 4.30948 6.6167 5.73805 6.6167Z" stroke="#828282" stroke-width="2" stroke-linecap="round" stroke-linejoin="round"/>
<path d="M6.21436 10.3614V6.13232" stroke="#828282" stroke-width="2" stroke-linecap="round" stroke-linejoin="round"/>
<path d="M14.7856 6.14893V10.3617" stroke="#828282" stroke-width="2" stroke-linecap="round" stroke-linejoin="round"/>
<path d="M14.7858 6.1488C14.7858 4.74455 13.9555 3.24788 12.6346 2.49825C11.3138 1.74863 9.68638 1.74863 8.36551 2.49825C7.04464 3.24788 6.21436 4.74455 6.21436 6.1488" stroke="#828282" stroke-width="2" stroke-linecap="round" stroke-linejoin="round"/>
</svg>
